<svg id="Capa_1" data-name="Capa 1" xmlns="http://www.w3.org/2000/svg" viewBox="0 0 170.83 170.26"><defs><style>.cls-1{fill:#6faab5;}</style></defs><title>icon</title><path class="cls-1" d="M86.39,170.21c-.72,0-1.39-.05-2.15-.11a24.63,24.63,0,0,1-9.42-2.63l-2-1.05c-3.07-1.63-6.9-3.65-11.09-6.36A184,184,0,0,1,44.49,146.6c-6.37-5.43-11.43-13-14.78-18.08l-.16-.24c-3.09-4.64-7.75-11.66-8.22-20.07-1-19,9.77-34.6,26.91-38.87,12.13-3,27.39.55,38.24,14,10.85-13.43,26.11-17,38.23-14,17.15,4.27,28,19.88,26.92,38.87-.47,8.41-5.14,15.43-8.22,20.07l-.17.25c-3.35,5-8.4,12.64-14.77,18.07a186.64,186.64,0,0,1-17.25,13.46,129.43,129.43,0,0,1-12.3,7,27.89,27.89,0,0,1-9.06,2.79l-.42.06A18.45,18.45,0,0,1,86.39,170.21ZM56.77,84.3a19.13,19.13,0,0,0-4.66.57c-7.3,1.81-15.56,8.78-14.8,22.45.2,3.76,2.64,7.71,5.56,12.1l.16.24c2.86,4.3,7.17,10.78,11.84,14.76,8.59,7.33,13.2,10.68,15.56,12.2,3.6,2.33,6.94,4.1,9.88,5.65l2.1,1.12a8.83,8.83,0,0,0,3.1.76,4.33,4.33,0,0,0,1.43,0h0l.57-.09a11.78,11.78,0,0,0,4.2-1.24,115.08,115.08,0,0,0,10.82-6.19c2.35-1.52,7-4.87,15.56-12.2,4.66-4,9-10.46,11.83-14.75l.16-.25c2.93-4.4,5.36-8.34,5.57-12.1.76-13.67-7.5-20.64-14.8-22.45-8.08-2-19.06.93-26,15-1.11,7.5-6.9,8-8.12,8.08-.8,0-7.37-.07-8.53-8.09C72.43,88.36,64.06,84.3,56.77,84.3Z" transform="translate(-0.16 0.05)"/><path class="cls-1" d="M17.49,78A17.33,17.33,0,1,1,34.82,60.66,17.35,17.35,0,0,1,17.49,78Zm0-23.66a6.33,6.33,0,1,0,6.33,6.33A6.34,6.34,0,0,0,17.49,54.33Z" transform="translate(-0.16 0.05)"/><path class="cls-1" d="M153.66,77.82A17.33,17.33,0,1,1,171,60.49,17.35,17.35,0,0,1,153.66,77.82Zm0-23.66A6.33,6.33,0,1,0,160,60.49,6.34,6.34,0,0,0,153.66,54.16Z" transform="translate(-0.16 0.05)"/><path class="cls-1" d="M55.36,49.31A24.59,24.59,0,1,1,80,24.72,24.61,24.61,0,0,1,55.36,49.31Zm0-38.17A13.59,13.59,0,1,0,69,24.72,13.59,13.59,0,0,0,55.36,11.14Z" transform="translate(-0.16 0.05)"/><path class="cls-1" d="M113.65,49.12a24.59,24.59,0,1,1,24.58-24.59A24.62,24.62,0,0,1,113.65,49.12Zm0-38.17a13.59,13.59,0,1,0,13.58,13.58A13.6,13.6,0,0,0,113.65,11Z" transform="translate(-0.16 0.05)"/></svg>