<svg width="485" height="482" viewBox="0 0 485 482" fill="none" xmlns="http://www.w3.org/2000/svg">
<g clip-path="url(#clip0_306_4669)">
<path d="M244.814 482C242.77 482 240.867 481.858 238.71 481.688C229.386 481.014 220.292 478.482 211.966 474.243L206.287 471.27C197.571 466.656 186.698 460.937 174.802 453.266C157.743 441.543 141.399 428.819 125.856 415.161C107.771 399.789 93.4056 378.358 83.8947 363.977L83.4405 363.297C74.6677 350.162 61.4376 330.288 60.1032 306.48C57.2642 252.692 87.8411 208.529 136.503 196.44C170.941 187.948 214.265 197.997 245.069 236.074C275.873 198.054 319.198 187.948 353.607 196.44C402.297 208.529 433.102 252.72 430.035 306.48C428.701 330.288 415.442 350.162 406.698 363.297L406.215 364.005C396.705 378.16 382.367 399.789 364.282 415.161C348.719 428.806 332.366 441.53 315.308 453.266C304.039 460.501 292.381 467.117 280.387 473.082C272.328 477.159 263.629 479.831 254.665 480.981L253.473 481.151C250.615 481.673 247.719 481.957 244.814 482V482ZM160.72 238.792C156.26 238.786 151.817 239.328 147.49 240.405C126.765 245.529 103.314 265.261 105.472 303.96C106.04 314.605 112.967 325.787 121.257 338.215L121.711 338.895C129.831 351.068 142.067 369.412 155.326 380.68C179.714 401.431 192.802 410.914 199.502 415.217C209.723 421.814 219.205 426.824 227.552 431.212L233.514 434.383C236.293 435.627 239.275 436.356 242.315 436.535C243.659 436.759 245.031 436.759 246.375 436.535L247.994 436.28C252.153 435.863 256.198 434.672 259.918 432.769C270.467 427.486 280.722 421.636 290.636 415.246C297.308 410.943 310.51 401.459 334.813 380.708C348.043 369.384 360.364 351.096 368.399 338.951L368.853 338.243C377.172 325.787 384.071 314.633 384.667 303.989C386.825 265.289 363.374 245.558 342.648 240.434C319.709 234.772 288.536 243.066 268.832 282.898C265.681 304.13 249.243 305.546 245.779 305.772C243.508 305.772 224.855 305.574 221.562 282.87C205.18 250.285 181.417 238.792 160.72 238.792Z" fill="url(#paint0_linear_306_4669)"/>
<path d="M49.2013 220.957C39.4714 220.957 29.96 218.08 21.8695 212.69C13.779 207.301 7.47272 199.64 3.74796 190.677C0.0231997 181.714 -0.952806 171.851 0.943335 162.335C2.83948 152.819 7.52262 144.077 14.4007 137.215C21.2788 130.353 30.0429 125.678 39.5852 123.782C49.1274 121.885 59.0193 122.853 68.0101 126.562C77.0009 130.271 84.6871 136.555 90.0968 144.619C95.5065 152.683 98.3969 162.166 98.4025 171.868C98.395 184.88 93.2098 197.357 83.9852 206.561C74.7606 215.764 62.2505 220.942 49.2013 220.957V220.957ZM49.2013 153.976C45.6469 153.976 42.1723 155.027 39.2169 156.996C36.2615 158.965 33.9581 161.764 32.5979 165.038C31.2377 168.313 30.8818 171.916 31.5752 175.392C32.2686 178.868 33.9802 182.061 36.4936 184.567C39.0069 187.074 42.2091 188.78 45.6952 189.472C49.1813 190.163 52.7948 189.808 56.0786 188.452C59.3625 187.096 62.1692 184.799 64.1439 181.852C66.1186 178.905 67.1726 175.44 67.1726 171.896C67.1726 167.141 65.2801 162.58 61.9107 159.215C58.5412 155.85 53.9702 153.955 49.2013 153.948V153.976Z" fill="url(#paint1_linear_306_4669)"/>
<path d="M435.799 220.447C426.069 220.442 416.559 217.559 408.472 212.165C400.384 206.771 394.083 199.107 390.363 190.142C386.644 181.176 385.673 171.313 387.575 161.798C389.476 152.283 394.165 143.544 401.047 136.685C407.929 129.827 416.696 125.157 426.239 123.267C435.782 121.376 445.674 122.349 454.662 126.063C463.651 129.777 471.334 136.066 476.739 144.133C482.144 152.2 485.028 161.684 485.028 171.387C485.013 184.399 479.821 196.873 470.591 206.071C461.361 215.269 448.848 220.44 435.799 220.447ZM435.799 153.467C432.246 153.472 428.774 154.528 425.822 156.5C422.871 158.473 420.572 161.274 419.216 164.548C417.86 167.823 417.508 171.426 418.205 174.9C418.901 178.374 420.615 181.565 423.13 184.068C425.644 186.571 428.846 188.275 432.332 188.964C435.817 189.653 439.429 189.297 442.711 187.94C445.993 186.583 448.798 184.286 450.772 181.339C452.745 178.393 453.799 174.93 453.799 171.387C453.791 166.631 451.891 162.073 448.517 158.713C445.142 155.354 440.568 153.467 435.799 153.467V153.467Z" fill="url(#paint2_linear_306_4669)"/>
<path d="M156.717 139.736C142.916 139.709 129.432 135.602 117.97 127.936C106.508 120.27 97.5819 109.388 92.3197 96.665C87.0575 83.9424 85.6952 69.9499 88.405 56.4556C91.1147 42.9613 97.7749 30.5706 107.544 20.8491C117.313 11.1277 129.753 4.51168 143.291 1.83708C156.83 -0.837515 170.86 0.549303 183.608 5.82231C196.356 11.0953 207.251 20.0179 214.916 31.4627C222.581 42.9075 226.672 56.3609 226.672 70.1231C226.665 79.2746 224.849 88.3351 221.329 96.7869C217.809 105.239 212.654 112.916 206.158 119.381C199.661 125.845 191.951 130.97 183.468 134.463C174.985 137.956 165.895 139.748 156.717 139.736V139.736ZM156.717 31.6786C149.091 31.7066 141.644 33.9874 135.317 38.2331C128.991 42.4788 124.067 48.4988 121.17 55.5328C118.272 62.5669 117.53 70.2994 119.037 77.7539C120.544 85.2083 124.233 92.0502 129.637 97.4154C135.041 102.781 141.919 106.429 149.401 107.898C156.884 109.368 164.635 108.594 171.677 105.674C178.718 102.753 184.733 97.8178 188.963 91.4903C193.193 85.1629 195.448 77.7274 195.442 70.1231C195.439 65.0612 194.433 60.0498 192.484 55.3761C190.534 50.7024 187.679 46.4582 184.081 42.8868C180.484 39.3154 176.215 36.487 171.519 34.5637C166.824 32.6404 161.794 31.6599 156.717 31.6786V31.6786Z" fill="url(#paint3_linear_306_4669)"/>
<path d="M322.207 139.199C308.398 139.204 294.898 135.126 283.413 127.48C271.929 119.834 262.976 108.964 257.688 96.2446C252.4 83.5249 251.013 69.5271 253.704 56.0216C256.394 42.516 263.041 30.1095 272.803 20.371C282.566 10.6326 295.005 3.99973 308.548 1.31139C322.092 -1.37696 336.13 -3.46595e-05 348.888 5.26801C361.647 10.536 372.552 19.4586 380.224 30.907C387.897 42.3555 391.992 55.8157 391.992 69.5851C391.969 88.0359 384.611 105.725 371.529 118.774C358.448 131.824 340.711 139.169 322.207 139.199ZM322.207 31.1406C314.574 31.135 307.11 33.3874 300.761 37.6127C294.412 41.838 289.462 47.8463 286.538 54.8774C283.614 61.9086 282.848 69.6465 284.336 77.1121C285.823 84.5778 289.499 91.4356 294.896 96.8178C300.294 102.2 307.171 105.865 314.659 107.348C322.146 108.832 329.906 108.068 336.957 105.152C344.008 102.237 350.034 97.3013 354.271 90.9701C358.509 84.639 360.767 77.1967 360.762 69.5851C360.709 59.4182 356.626 49.6846 349.403 42.5087C342.18 35.3327 332.403 31.297 322.207 31.2822V31.1406Z" fill="url(#paint4_linear_306_4669)"/>
</g>
<defs>
<linearGradient id="paint0_linear_306_4669" x1="245.083" y1="193.628" x2="245.083" y2="482" gradientUnits="userSpaceOnUse">
<stop stop-color="#6FAAB5" stop-opacity="0.19"/>
<stop offset="1" stop-color="#AF6FB5" stop-opacity="0.06"/>
</linearGradient>
<linearGradient id="paint1_linear_306_4669" x1="49.2013" y1="122.835" x2="49.2013" y2="220.957" gradientUnits="userSpaceOnUse">
<stop stop-color="#6FAAB5" stop-opacity="0.19"/>
<stop offset="1" stop-color="#AF6FB5" stop-opacity="0.06"/>
</linearGradient>
<linearGradient id="paint2_linear_306_4669" x1="435.827" y1="122.326" x2="435.827" y2="220.447" gradientUnits="userSpaceOnUse">
<stop stop-color="#6FAAB5" stop-opacity="0.19"/>
<stop offset="1" stop-color="#AF6FB5" stop-opacity="0.06"/>
</linearGradient>
<linearGradient id="paint3_linear_306_4669" x1="156.859" y1="0.509766" x2="156.859" y2="139.737" gradientUnits="userSpaceOnUse">
<stop stop-color="#6FAAB5" stop-opacity="0.19"/>
<stop offset="1" stop-color="#AF6FB5" stop-opacity="0.06"/>
</linearGradient>
<linearGradient id="paint4_linear_306_4669" x1="322.179" y1="-0.0283203" x2="322.179" y2="139.199" gradientUnits="userSpaceOnUse">
<stop stop-color="#6FAAB5" stop-opacity="0.19"/>
<stop offset="1" stop-color="#AF6FB5" stop-opacity="0.06"/>
</linearGradient>
<clipPath id="clip0_306_4669">
<rect width="485" height="482" fill="white"/>
</clipPath>
</defs>
</svg>