<svg width="485" height="482" viewBox="0 0 485 482" fill="none" xmlns="http://www.w3.org/2000/svg">
<g clip-path="url(#clip0_306_4669)">
<path d="M322.207 139.199C308.398 139.204 294.898 135.126 283.413 127.48C271.929 119.834 262.976 108.964 257.688 96.2446C252.4 83.5249 251.013 69.5271 253.704 56.0216C256.394 42.516 263.041 30.1095 272.803 20.371C282.566 10.6326 295.005 3.99973 308.548 1.31139C322.092 -1.37696 336.13 -3.46595e-05 348.888 5.26801C361.647 10.536 372.552 19.4586 380.224 30.907C387.897 42.3555 391.992 55.8157 391.992 69.5851C391.969 88.0359 384.611 105.725 371.529 118.774C358.448 131.824 340.711 139.169 322.207 139.199ZM322.207 31.1406C314.574 31.135 307.11 33.3874 300.761 37.6127C294.412 41.838 289.462 47.8463 286.538 54.8774C283.614 61.9086 282.848 69.6465 284.336 77.1121C285.823 84.5778 289.499 91.4356 294.896 96.8178C300.294 102.2 307.171 105.865 314.659 107.348C322.146 108.832 329.906 108.068 336.957 105.152C344.008 102.237 350.034 97.3013 354.271 90.9701C358.509 84.639 360.767 77.1967 360.762 69.5851C360.709 59.4182 356.626 49.6846 349.403 42.5087C342.18 35.3327 332.403 31.297 322.207 31.2822V31.1406Z" fill="url(#paint4_linear_306_4669)"/>
</g>
<defs>
<linearGradient id="paint4_linear_306_4669" x1="322.179" y1="-0.0283203" x2="322.179" y2="139.199" gradientUnits="userSpaceOnUse">
<stop stop-color="#6FAAB5" stop-opacity="0.19"/>
<stop offset="1" stop-color="#AF6FB5" stop-opacity="0.06"/>
</linearGradient>
<clipPath id="clip0_306_4669">
<rect width="485" height="482" fill="white"/>
</clipPath>
</defs>
</svg>